During the Roman Empire, General Crassius ruled a small province with an Iron fist. Serena, a young girl in a village, watches Crassius kill her parents. Crassius and Serena's destiny would lead them to the Gladiator ring; the Amazons Warrior vs the Roman General.
 
http://www.imdb.com/title/tt0275913/

Subtitles (srt) : Dutch, English and German.

Covers included.

In een afgelegen dorp aan de rand van het Romeinse rijk, wordt een jong meisje Serena als slaaf gevangen genomen en haar familie afgeslacht door de sadistische Generaal Crassius. Serana wordt een aantrekkelijke jonge vrouw en is een opstandige slavendanseres. Als zij uit zelfverdediging een opdringerige Romeinse Senator neersteekt, vlucht ze samen met de gevreesde vrouwelijke krijger Lone. Onder bescherming van de 'Amazones', leert Serana de kunst van de 'mortal combat'. Gedreven door haar haat voor Crassius, groeit ze uit tot een van de meest volmaakte en dodelijke krijgers van de Amazones.
 
http://www.moviemeter.nl/film/3210

Ondertitels (srt) : Duits, Engels en Nederlands.

Hoesjes bijgevoegd.

General
Complete name                    : Eigen RipsAmazons and Gladiators-AC3-XviD-DVDRip[Eng]2001 2Lions-TeamAmazons and Gladiators-AC3-XviD-DVDRip[Eng]2001.avi
Format                           : AVI
Format/Info                      : Audio Video Interleave
File size                        : 1.36 GiB
Duration                         : 1h 29mn
Overall bit rate                 : 2 173 Kbps
Writing application              : VirtualDubMod 1.5.4.1 (build 2178/release)
Writing library                  : VirtualDubMod build 2178/release

Video
ID                               : 0
Format                           : MPEG-4 Visual
Format profile                   : Simple@L3
Format settings, BVOP            : No
Format settings, QPel            : No
Format settings, GMC             : No warppoints
Format settings, Matrix          : Default (H.263)
Codec ID                         : XVID
Codec ID/Hint                    : XviD
Duration                         : 1h 29mn
Bit rate                         : 1 716 Kbps
Width                            : 720 pixels
Height                           : 400 pixels
Display aspect ratio             : 16:9
Frame rate                       : 25.000 fps
Resolution                       : 8 bits
Colorimetry                      : 4:2:0
Scan type                        : Progressive
Bits/(Pixel*Frame)               : 0.238
Stream size                      : 1.07 GiB (79%)
Writing library                  : XviD 1.1.2 (UTC 2006-11-01)

Audio
ID                               : 1
Format                           : AC-3
Format/Info                      : Audio Coding 3
Format_Settings_ModeExtension    : CM (complete main)
Codec ID                         : 2000
Duration                         : 1h 29mn
Bit rate mode                    : Constant
Bit rate                         : 448 Kbps
Channel(s)                       : 6 channels
Channel positions                : Front: L C R, Side: L R, LFE
Sampling rate                    : 48.0 KHz
Stream size                      : 287 MiB (21%)
Alignment                        : Split accross interleaves
Interleave, duration             : 40 ms (1.00 video frame)
Interleave, preload duration     : 500 ms

A BIG THANKS to BrunoBspot for the source.. 

Brought to you by 
2Lions Team

meer zien??
Kom dan eens kijken op ons forum 
                    
http://www.2lions.ons-forum.nl

2Lions the site to be for all your Dutch MOVIES and more

******************************************

DON T HIT AND RUN Niet gelijk afhaken als de FILM binnen is blijf seeden. 

Don`t quit after you finished the download, but keep seeding

There are fake torrents from uploaders who use our team name.
Those are not ours, or members from our team.
We 2Lions-Team are not responsible for the fake posts on our name

Wij 2Lions-Team zijn niet verantwoordelijk voor die zieke FAKE posten die op onze naam worden gedaan

Please check our site !!!

to the fakers , get a life !!!